<?xml version="1.0" encoding="UTF-8" standalone="no"?>
<!-- Created with Inkscape (http://www.inkscape.org/) -->

<svg
   width="93.962746mm"
   height="68.772552mm"
   viewBox="0 0 93.962746 68.772552"
   version="1.1"
   id="svg1"
   xml:space="preserve"
   inkscape:version="1.3.2 (091e20e, 2023-11-25, custom)"
   sodipodi:docname="logoBoda.svg"
   xmlns:inkscape="http://www.inkscape.org/namespaces/inkscape"
   xmlns:sodipodi="http://sodipodi.sourceforge.net/DTD/sodipodi-0.dtd"
   xmlns="http://www.w3.org/2000/svg"
   xmlns:svg="http://www.w3.org/2000/svg"><sodipodi:namedview
     id="namedview1"
     pagecolor="#ffffff"
     bordercolor="#000000"
     borderopacity="0.25"
     inkscape:showpageshadow="2"
     inkscape:pageopacity="0.0"
     inkscape:pagecheckerboard="0"
     inkscape:deskcolor="#d1d1d1"
     inkscape:document-units="mm"
     inkscape:zoom="1.2825338"
     inkscape:cx="141.12689"
     inkscape:cy="173.48471"
     inkscape:window-width="1920"
     inkscape:window-height="1017"
     inkscape:window-x="-8"
     inkscape:window-y="-8"
     inkscape:window-maximized="1"
     inkscape:current-layer="layer1"
     showgrid="true"><inkscape:grid
       id="grid1"
       units="mm"
       originx="-57.509597"
       originy="-20.295927"
       spacingx="0.99999998"
       spacingy="1"
       empcolor="#0099e5"
       empopacity="0.30196078"
       color="#0099e5"
       opacity="0.14901961"
       empspacing="5"
       dotted="false"
       gridanglex="30"
       gridanglez="30"
       visible="true" /></sodipodi:namedview><defs
     id="defs1" /><g
     inkscape:label="Capa 1"
     inkscape:groupmode="layer"
     id="layer1"
     transform="translate(-57.509598,-20.295928)"><path
       style="fill:#287233;fill-opacity:1"
       d="m 114.17622,88.589921 c 1.14967,-3.019782 0.31882,1.979835 0,0 z M 86.878348,88.248518 c -2.999077,-1.633391 3.139513,0.229231 0.253145,-1.601861 -3.304955,-1.605454 2.435031,-2.731542 1.135917,-1.189027 -3.685574,-0.858625 2.753505,2.279449 -0.618171,2.938772 z m 35.902162,0.0034 c -2.21783,-1.229068 0.0162,-5.838358 -0.07,-1.371119 1.63461,2.803873 1.64465,-4.808022 2.00329,-0.553722 0.36374,1.229743 -0.63357,2.502014 -1.93325,1.924841 z m 16.75739,-0.111723 c -3.88423,-2.180014 3.02022,-5.716389 2.50668,-1.293263 -0.15445,1.15184 -1.48354,1.803772 -2.50668,1.293263 z m 1.52711,-0.81425 c 1.69053,-3.241734 -4.09867,-1.699606 -1.14459,0.289053 0.39443,0.148557 0.86111,0.01607 1.14459,-0.289053 z M 66.770015,86.437637 c -1.28406,-2.577369 3.319765,-1.987045 2.400532,-0.02293 -2.051731,-0.03449 -2.210502,3.878707 -2.400532,0.02293 z m 1.852083,-0.646246 c -1.757667,-2.278356 -1.663009,2.184485 0,0 z m 2.476244,0.727604 c 0.717292,-5.089769 4.805561,3.466302 1.056807,1.131774 -1.314627,0.315838 -2.033803,1.174057 -1.056807,-1.131774 z m 1.681209,0.132292 c -0.351317,-2.637544 -1.742658,1.040297 0,0 z m 2.721713,-0.21365 c -1.328598,-2.437694 3.329319,-2.155951 2.000319,-0.13031 -0.453605,0.819823 1.326937,2.971833 -0.623562,1.073238 -1.035102,-2.002448 -1.223391,2.760714 -1.376757,-0.942954 z m 1.5875,-0.778538 c -1.336141,-1.599712 -1.323365,1.553968 0,0 z m 2.740828,0.859896 c 0.717292,-5.089769 4.80556,3.466302 1.056807,1.131774 -1.314627,0.315838 -2.033803,1.174057 -1.056807,-1.131774 z m 1.681209,0.132292 c -0.351317,-2.637544 -1.742658,1.040297 0,0 z m 8.80713,-0.198438 c 0.10194,-4.284206 1.129716,2.299391 0.07632,1.223698 l -0.05597,-0.545703 z m 2.38125,0 c -1.369287,-2.65001 3.918741,-1.710249 0.79375,-0.79375 2.403494,0.768493 -1.514296,1.806636 1.322917,2.248959 -1.745505,0.627229 -2.44772,0.473778 -2.116667,-1.455209 z m 3.537403,1.12448 c -0.613629,-2.987727 1.785185,-3.633132 2.095301,-0.595313 0.349501,-2.668137 2.752125,-2.892064 2.205575,0.363802 -0.46567,2.828918 -1.053181,-4.139124 -1.818613,0.471796 -1.094565,0.498415 -1.824138,-3.926217 -1.879612,0.127633 -0.134057,0.47188 -1.028309,0.128192 -0.602651,-0.367918 z m 5.987596,-1.139692 c -1.28406,-2.57737 3.31977,-1.987043 2.40053,-0.02293 -2.05173,-0.03449 -2.21049,3.878709 -2.40053,0.02293 z m 1.85208,-0.646246 c -1.75766,-2.278365 -1.66299,2.184492 0,0 z m 2.11667,0.661458 c -0.97864,-3.124846 3.9309,-1.564441 2.25482,0.828826 0.73799,2.703484 -2.05136,-2.941405 -1.57412,0.660756 -0.8391,0.914374 -0.6258,-1.280952 -0.6807,-1.489582 z m 1.85208,-0.79375 c -1.33614,-1.599715 -1.32336,1.553971 0,0 z m 2.38125,0.79375 c -1.36929,-2.650012 3.91875,-1.710248 0.79375,-0.79375 2.40351,0.768492 -1.5143,1.806634 1.32292,2.248959 -1.7455,0.627228 -2.44772,0.473778 -2.11667,-1.455209 z m 8.73125,0.264584 c -0.33722,-1.872617 -1.64507,-2.122778 1.19889,-1.906654 -0.28884,-0.350544 -1.06028,5.349661 -1.19889,1.906654 z m 10.05417,0.503865 c -1.22955,-3.193297 -0.65625,-1.940695 0.60212,-1.703939 2.46392,-3.83002 -0.60583,5.48603 -0.60212,1.703939 z m 6.08542,0 c -1.22956,-3.193299 -0.65625,-1.940693 0.60212,-1.703939 2.42618,-3.95738 -0.61482,5.562477 -0.60212,1.703939 z m -11.90625,-3.414282 c 1.74059,-1.513845 -0.46899,1.450986 0,0 z m -26.689554,-4.66368 c -4.949111,-0.383455 -8.456679,-5.902893 -6.468007,-10.490373 1.092914,-2.422363 3.54606,-3.684677 5.636388,-5.124216 -2.131359,-2.216685 -3.418792,-6.031153 -0.870392,-8.456712 3.423042,-2.878102 9.575815,-2.702453 12.586865,0.707791 2.65932,3.486936 -0.91328,7.157237 -3.79118,8.97719 1.31788,1.088966 2.62024,4.450894 4.07345,3.893071 1.72581,-1.436675 0.2211,-5.858045 3.19074,-5.083696 2.92921,-0.649146 5.00615,0.602735 3.28236,3.693394 0.17565,2.583491 -3.75765,5.143857 -2.50126,7.218164 1.21335,1.478094 2.42671,2.956185 3.64007,4.434275 -2.37746,0 -4.75492,0 -7.13238,0 -0.76797,-1.843118 -2.03184,-1.545036 -3.51597,-0.632973 -2.60261,0.867094 -5.400621,1.459137 -8.130684,0.864085 z m 5.974534,-5.396321 c 1.80959,-1.690269 -2.7985,-4.533621 -3.959952,-6.266074 -5.362978,1.421735 -3.068167,8.642464 2.155492,6.690211 0.61214,-0.08348 1.2284,-0.191995 1.80446,-0.424137 z m -0.3479,-13.899127 c 2.9641,-3.980978 -5.705329,-3.269681 -2.13262,0.456263 0.5639,1.325385 1.64669,0.207037 2.13262,-0.456263 z M 65.711681,72.824092 c -0.08819,-2.081549 0.17306,-4.264147 -0.124368,-6.285189 -2.696386,-4.30177 -5.4572,-8.56427 -8.077715,-12.912777 2.356598,-0.19633 4.729735,-0.08435 7.093877,-0.113902 1.503547,2.361622 2.670233,4.987472 4.486551,7.112843 1.740701,-2.114763 2.938608,-4.752266 4.426863,-7.101544 2.419568,-0.0037 4.839137,-0.0075 7.258705,-0.0112 -2.827887,4.462062 -5.664213,8.918913 -8.44933,13.407877 0,3.997374 0,7.994749 0,11.992123 -2.204861,0 -4.409722,0 -6.614583,0 0,-2.02941 0,-4.058821 0,-6.088231 z m 59.002079,5.982193 c 3.11589,-8.355981 6.00197,-16.857257 9.35387,-25.08863 2.69497,-0.371531 5.4465,-0.04172 8.16624,-0.07314 3.07899,8.422623 6.24799,16.813979 9.23847,25.267708 -2.20037,0 -4.40073,0 -6.6011,0 -0.52566,-1.45521 -1.05132,-2.910418 -1.57699,-4.365625 -3.50356,0 -7.00713,0 -10.51069,0 -0.50505,1.455208 -1.01011,2.910417 -1.51516,4.365625 -2.18358,-0.02801 -4.37856,0.0761 -6.55464,-0.105941 z m 15.0675,-14.463823 c -0.82036,-1.700915 -1.56372,-7.411906 -2.57751,-2.503639 -0.64404,2.837963 -4.72139,8.473382 1.06243,7.019235 1.04499,-0.265002 3.93889,0.783607 2.70539,-1.100202 -0.39677,-1.138465 -0.79354,-2.276929 -1.19031,-3.415394 z m -21.2852,-19.561488 c -2.90044,-1.53005 3.27548,1.816479 2.10343,-1.470215 0.90435,-4.388493 1.22412,-9.091073 0.22983,-13.48224 -1.06834,-4.21324 -6.70261,-3.651256 -7.70188,0.240116 -0.15012,-6.08617 9.31728,-6.252451 9.81536,-0.363411 0.82597,5.318654 -0.80393,10.73799 -2.83215,15.584411 -0.55283,-0.120329 -1.08324,-0.319075 -1.61459,-0.508661 z m -4.23334,-1.464518 c -1.59513,-1.073501 3.05234,1.1636 0,0 z m -1.98437,-0.78444 c -1.43716,-1.241438 2.48915,1.200629 0,0 z m -3.597,-1.949625 c -3.71222,-1.689502 -6.17321,-7.491259 -2.05532,-10.119181 1.31599,-2.201476 7.88748,1.024677 5.52401,0.442767 -4.44695,-3.26591 -9.93425,2.987251 -6.08098,7.011436 0.67792,1.334801 6.72044,5.141154 2.61229,2.664978 z M 88.492876,38.459728 c -1.690595,-4.889452 -4.153902,-10.49262 -1.969461,-15.599653 1.586867,-3.431557 6.976496,-3.425736 8.51219,0.05916 0.395255,3.137178 1.540695,2.581735 3.941953,1.427835 5.663092,-1.074058 7.379012,6.789694 3.103882,9.566934 -1.80109,1.976798 -7.589631,4.805906 -8.214427,4.691249 3.956112,-2.056208 9.205847,-4.034001 10.269877,-8.884736 0.82488,-4.153801 -4.465619,-6.577158 -7.51864,-4.062554 -1.920568,1.348486 -1.18322,-4.227924 -4.20609,-3.749123 -5.224575,-0.488744 -5.324602,6.259495 -4.788316,9.950552 0.806391,2.646817 0.398758,9.429317 3.791887,7.877648 -1.783854,1.154943 -2.386793,0.679725 -2.922855,-1.277312 z m 3.677138,0.764996 c 2.064608,-0.949319 -0.815799,0.886389 0,0 z"
       id="path1" /></g></svg>
